<svg width="31" height="37" viewBox="0 0 31 37" fill="none" xmlns="http://www.w3.org/2000/svg">
<path fill-rule="evenodd" clip-rule="evenodd" d="M12.9375 2.69788C12.9375 1.27996 14.0821 0.135376 15.5 0.135376C16.9179 0.135376 18.0625 1.27996 18.0625 2.69788V4.69663C23.4267 5.85829 27.4583 10.6416 27.4583 16.3645V26.6145L30.875 30.0312V31.7395H0.125V30.0312L3.54167 26.6145V16.3645C3.54167 10.6416 7.57333 5.85829 12.9375 4.69663V2.69788ZM15.5 7.82292C20.215 7.82292 24.0417 11.6496 24.0417 16.3646V28.3229H6.95833V16.3646C6.95833 11.6496 10.785 7.82292 15.5 7.82292ZM12.1004 33.465C12.1004 35.3442 13.6208 36.8646 15.5 36.8646C17.3792 36.8646 18.8996 35.3442 18.8996 33.465H12.1004Z" fill="#F2F2F2"/>
</svg>
